<?xml version="1.0" encoding="utf-8"?>
<!-- Generator: Adobe Illustrator 19.2.1, SVG Export Plug-In . SVG Version: 6.00 Build 0)  -->
<svg version="1.1" id="Layer_1" xmlns="http://www.w3.org/2000/svg" xmlns:xlink="http://www.w3.org/1999/xlink" x="0px" y="0px"
	 viewBox="0 0 13 13" style="enable-background:new 0 0 13 13;" xml:space="preserve">
<style type="text/css">
	.st0{fill:#BF4A3A;}
	.st1{fill:#FFD800;}
	.st2{fill:#333333;}
</style>
<g>
	<polygon class="st0" points="0,0 0,12.9 13,13 13,0 	"/>
	<polygon class="st1" points="1,1 1,7 6,12 12,12 12,6 7,1 	"/>
	<polygon class="st2" points="2,2 2,4 4,4 4,6 2,6 2,7 5,7 5,9 6,9 6,7 7,7 7,10 8,10 8,9 10,9 10,11 11,11 11,7 7,3 6,3 6,2 	"/>
</g>
</svg>
